<svg width="64" height="64" viewBox="0 0 64 64" fill="none" xmlns="http://www.w3.org/2000/svg">
<g clip-path="url(#clip0_281_384)">
<path d="M63.7158 31.8579C63.7158 49.4527 49.4527 63.7162 31.8581 63.7162C14.2633 63.7162 0 49.4527 0 31.8579C0 14.2633 14.2633 0 31.8581 0C49.4525 0 63.7158 14.2633 63.7158 31.8579Z" fill="#213147"/>
<path d="M30.1579 5.54395C30.8577 5.28952 31.7284 5.23372 32.4528 5.42188C32.4732 5.42687 32.4943 5.43138 32.5153 5.43652C33.0908 5.58074 33.5895 5.86735 34.0954 6.16895C34.2363 6.25244 34.3782 6.33437 34.5202 6.41602C34.5782 6.44944 34.637 6.48219 34.695 6.51562C34.7238 6.53219 34.7523 6.54934 34.7819 6.56641C34.926 6.64944 35.0705 6.73231 35.2145 6.81543C35.2719 6.84852 35.3291 6.88195 35.3864 6.91504C36.4218 7.51238 36.4222 7.51273 36.5085 7.5625C36.566 7.59568 36.6238 7.62894 36.6813 7.66211C36.8244 7.74464 36.968 7.82752 37.111 7.91016C37.4243 8.09112 37.7382 8.27099 38.0524 8.4502C38.2923 8.58701 38.531 8.72572 38.7692 8.86523C38.9727 8.98419 39.1777 9.1011 39.3825 9.21777C39.6394 9.36413 39.895 9.51273 40.1501 9.66211C40.3534 9.78099 40.5578 9.89805 40.7624 10.0146C41.0192 10.161 41.2758 10.3086 41.5309 10.458C41.7344 10.5769 41.9385 10.6949 42.1432 10.8115C42.374 10.943 42.6045 11.0748 42.8337 11.209C43.0617 11.3425 43.2907 11.4746 43.5202 11.6055C43.8474 11.7921 44.1745 11.9805 44.5007 12.1689C44.6441 12.2518 44.7879 12.3343 44.9313 12.417C44.9887 12.4501 45.0459 12.4835 45.1032 12.5166C45.1317 12.533 45.1608 12.5495 45.1901 12.5664C47.3471 13.8108 49.5039 15.0554 51.6608 16.2998C51.6893 16.3162 51.7184 16.3327 51.7477 16.3496C51.8049 16.3826 51.8624 16.4162 51.9196 16.4492C52.0668 16.5341 52.2137 16.6194 52.361 16.7041C52.5303 16.8015 52.6998 16.8991 52.8688 16.9971C52.8897 17.0091 52.9108 17.0208 52.9323 17.0332C53.267 17.2269 53.57 17.4475 53.8513 17.7139C53.873 17.7343 53.8952 17.7544 53.9177 17.7754C54.6714 18.5022 55.0615 19.5342 55.0807 20.5713C55.0836 20.7764 55.0832 20.9824 55.0827 21.1875V23.083C55.0831 23.6319 55.0839 24.1815 55.0837 24.7305C55.0835 25.2106 55.0826 25.6908 55.0827 26.1709C55.0827 26.2027 55.0827 26.2348 55.0827 26.2676C55.0827 26.397 55.0837 26.5268 55.0837 26.6562C55.0839 27.8704 55.0831 29.0847 55.0827 30.2988V37.6533C55.0826 38.1331 55.0835 38.613 55.0837 39.0928C55.0839 39.6386 55.0831 40.1847 55.0827 40.7305V42.6084C55.0857 43.9469 54.794 45.0866 53.8327 46.0605C53.4909 46.3818 53.0951 46.6094 52.6901 46.8408C52.6046 46.8898 52.5186 46.939 52.4333 46.9883C52.231 47.1052 52.0284 47.2222 51.8259 47.3389C51.7389 47.3889 51.652 47.4392 51.5651 47.4893C51.5366 47.5057 51.5076 47.5221 51.4782 47.5391C51.262 47.6638 51.0462 47.79 50.8307 47.916C50.6838 48.0019 50.5362 48.0875 50.3884 48.1719C50.3717 48.1814 50.3547 48.1904 50.3376 48.2002C50.2562 48.2466 50.1749 48.2936 50.0934 48.3398C49.9669 48.4118 49.8401 48.483 49.7175 48.5615C49.6297 48.6155 49.6299 48.6162 49.5768 48.6162L49.5505 48.6953C49.4959 48.7342 49.4954 48.7343 49.4225 48.7754C49.3955 48.7908 49.3684 48.8064 49.3405 48.8223C49.3107 48.8389 49.2804 48.8559 49.2497 48.873C49.2188 48.8906 49.1878 48.9082 49.1569 48.9258C49.0914 48.963 49.0253 49.0001 48.9597 49.0371C48.8167 49.1177 48.6744 49.1998 48.5319 49.2812C48.4852 49.308 48.4381 49.3346 48.3913 49.3613C48.167 49.4893 47.9432 49.6195 47.7204 49.75C47.5013 49.8781 47.2808 50.0042 47.0602 50.1299C46.8453 50.2524 46.6311 50.376 46.4177 50.501C46.1729 50.6443 45.9269 50.7854 45.6804 50.9258C45.4293 51.0688 45.179 51.2141 44.9304 51.3613C44.7532 51.4655 44.5721 51.5577 44.3874 51.6475C44.2201 51.7297 44.0595 51.821 43.8991 51.916C43.6231 52.0783 43.3453 52.2381 43.0671 52.3965C43.0378 52.4132 43.0084 52.4301 42.9782 52.4473C42.95 52.4633 42.9214 52.4795 42.8923 52.4961C42.7779 52.5619 42.6646 52.6295 42.5515 52.6973C42.4889 52.7309 42.4883 52.7314 42.4352 52.7314L42.4089 52.8105C42.3599 52.8454 42.3594 52.8455 42.2946 52.8809C42.2587 52.9007 42.2582 52.9014 42.2214 52.9219C42.1951 52.9361 42.1684 52.9501 42.1413 52.9648C42.085 52.996 42.0286 53.0274 41.9724 53.0586C41.9434 53.0746 41.9143 53.0909 41.8845 53.1074C41.7512 53.182 41.6196 53.2596 41.488 53.3369C41.2561 53.4728 41.0233 53.6072 40.7897 53.7402C40.559 53.8717 40.3285 54.0035 40.0993 54.1377C39.8711 54.2713 39.6415 54.4032 39.4118 54.5342C39.0852 54.7204 38.7598 54.9086 38.4343 55.0967C38.3435 55.1491 38.2526 55.2016 38.1618 55.2539C38.1309 55.2717 38.0999 55.2898 38.069 55.3076C38.0112 55.341 37.953 55.3739 37.8952 55.4072C37.8687 55.4225 37.8415 55.4383 37.8141 55.4541C37.7884 55.469 37.7626 55.4837 37.736 55.499C37.6531 55.5471 37.5705 55.596 37.488 55.6445C37.3846 55.7049 37.281 55.7617 37.1725 55.8125C36.9125 55.9405 36.6653 56.0912 36.4157 56.2383C36.2735 56.3218 36.1299 56.404 35.987 56.4863C35.9586 56.5027 35.9303 56.5193 35.9011 56.5361C35.8429 56.5696 35.7844 56.6032 35.7263 56.6367C35.5821 56.7198 35.4377 56.8026 35.2936 56.8857C35.2363 56.9188 35.1791 56.9523 35.1218 56.9854C35.0933 57.0018 35.0642 57.0182 35.0349 57.0352C34.9486 57.0849 34.8623 57.1348 34.7761 57.1846C34.7477 57.201 34.7194 57.2175 34.6901 57.2344C34.633 57.2673 34.5754 57.3001 34.5182 57.333C34.371 57.4178 34.2236 57.5032 34.0768 57.5889C32.9182 58.2641 31.7779 58.6301 30.4333 58.2812C29.9164 58.1374 29.4724 57.8868 29.0124 57.6152C28.868 57.5303 28.722 57.4468 28.5768 57.3633C28.5195 57.3302 28.4623 57.2968 28.405 57.2637C28.3765 57.2473 28.3474 57.2318 28.3181 57.2148C27.3695 56.6676 27.3691 56.6669 27.2829 56.6172C27.2256 56.5841 27.1683 56.5506 27.111 56.5176C26.9639 56.4327 26.8167 56.3477 26.6696 56.2627C26.3784 56.0944 26.0862 55.927 25.7927 55.7627C25.4387 55.5645 25.0861 55.3632 24.736 55.1582C24.5317 55.0387 24.3264 54.9209 24.1208 54.8037C23.7936 54.6171 23.4665 54.4287 23.1403 54.2402C22.9969 54.1574 22.8531 54.0749 22.7097 53.9922C22.6523 53.9591 22.5951 53.9257 22.5378 53.8926C22.5093 53.8762 22.4802 53.8597 22.4509 53.8428C22.3646 53.793 22.2783 53.7431 22.1921 53.6934C22.1637 53.677 22.1354 53.6604 22.1061 53.6436C22.049 53.6106 21.9914 53.5779 21.9343 53.5449C21.8009 53.468 21.6673 53.3903 21.5339 53.3135C21.4871 53.2866 21.44 53.2603 21.3932 53.2334C21.3347 53.1997 21.276 53.1655 21.2175 53.1318C21.092 53.0595 20.9672 52.9864 20.8434 52.9111C20.741 52.8494 20.6381 52.7954 20.53 52.7441C20.5217 52.7401 20.5138 52.7346 20.5056 52.7305C20.5587 52.7574 20.6116 52.7852 20.6657 52.8105C20.678 52.741 20.6927 52.6747 20.7145 52.6074C20.7246 52.5799 20.7351 52.5531 20.7448 52.5264C20.7638 52.474 20.7823 52.4214 20.8015 52.3691C20.8094 52.3476 20.8172 52.3266 20.8249 52.3057C20.8856 52.1403 20.9465 51.9749 21.0075 51.8096C21.2241 51.2234 21.4398 50.6362 21.653 50.0488C21.8097 49.617 21.9669 49.185 22.1257 48.7539C22.2839 48.3243 22.4408 47.8939 22.5954 47.4629C22.7759 46.9597 22.959 46.4575 23.1442 45.9561C23.3298 45.4538 23.5143 44.9506 23.697 44.4473C23.8537 44.0153 24.0118 43.5835 24.1706 43.1523C24.3288 42.7227 24.4857 42.2923 24.6403 41.8613C24.8094 41.39 24.9806 40.919 25.154 40.4492C25.3373 39.9528 25.5202 39.4563 25.7009 38.959C25.7119 38.9285 25.7224 38.8987 25.7331 38.8691C25.7442 38.8386 25.7555 38.809 25.7663 38.7793C25.7883 38.7187 25.8097 38.6572 25.8317 38.5967C25.8429 38.5658 25.854 38.5359 25.8649 38.5059C26.0038 38.1234 26.1433 37.7406 26.2829 37.3584C26.2894 37.3405 26.2961 37.323 26.3024 37.3057C26.3603 37.1472 26.4184 36.9885 26.4763 36.8301C26.5612 36.5975 26.6463 36.3644 26.7311 36.1318C26.7833 35.989 26.8353 35.846 26.8874 35.7031C26.9003 35.6677 26.9135 35.6321 26.9265 35.5967C27.0565 35.2402 27.186 34.8834 27.3171 34.5273C27.3272 34.4998 27.3375 34.473 27.3474 34.4463C27.3669 34.3932 27.3864 34.3402 27.4059 34.2871C27.4158 34.2604 27.4257 34.234 27.4352 34.208C27.445 34.1815 27.4541 34.1556 27.4636 34.1299C27.6405 33.6495 27.8147 33.1682 27.988 32.6865C28.1675 32.1875 28.3482 31.6889 28.5319 31.1914C28.7129 30.7015 28.8937 30.2107 29.072 29.7197C29.1373 29.5397 29.1374 29.5396 29.2028 29.3594C29.2196 29.3132 29.2196 29.3128 29.236 29.2676C29.3712 28.8953 29.5074 28.5234 29.6432 28.1514C29.6628 28.0977 29.6823 28.0439 29.7018 27.9902C29.8272 27.6469 29.9525 27.303 30.0788 26.96C30.0888 26.9328 30.0984 26.9063 30.1081 26.8799C30.1276 26.8268 30.1481 26.7728 30.1677 26.7197C30.182 26.6807 30.1818 26.6802 30.196 26.6416C30.2057 26.6151 30.2158 26.5892 30.2253 26.5635C30.4022 26.0832 30.5755 25.6017 30.7487 25.1201C30.9283 24.621 31.1099 24.1226 31.2936 23.625C31.4636 23.1649 31.633 22.7042 31.8005 22.2432C31.8329 22.1538 31.8656 22.064 31.8981 21.9746C32.0039 21.6836 32.1102 21.3927 32.2155 21.1016C32.2712 20.9476 32.3266 20.7935 32.3825 20.6396C32.4166 20.5457 32.4511 20.4514 32.485 20.3574C32.5171 20.2686 32.5495 20.1796 32.5817 20.0908C32.5998 20.0411 32.6001 20.041 32.6179 19.9922C32.7021 19.7577 32.7797 19.5069 32.9391 19.3115C32.9602 19.2929 32.9802 19.274 33.0007 19.2559C33.2498 19.0255 33.5556 19.025 33.8747 19.0264H38.0417C38.093 19.0266 38.1447 19.0272 38.196 19.0273C38.2675 19.027 38.3394 19.0259 38.4108 19.0264C38.4327 19.0265 38.454 19.0272 38.4753 19.0273C38.5509 19.0264 38.6163 19.031 38.6921 19.041C38.7961 19.0971 38.8418 19.1307 38.9011 19.2334C38.9438 19.3758 38.9526 19.4764 38.9079 19.6172C38.8917 19.6612 38.8751 19.705 38.8591 19.749C38.8495 19.7754 38.8499 19.7759 38.8405 19.8018C38.8105 19.8833 38.7809 19.965 38.7516 20.0469C38.5185 20.6994 38.2819 21.351 38.0417 22.001C37.867 22.4735 37.6941 22.9466 37.5241 23.4209C37.3657 23.863 37.2045 24.3046 37.0417 24.7451C36.8551 25.2498 36.6705 25.7552 36.489 26.2617C36.3305 26.7038 36.1693 27.1454 36.0065 27.5859C35.82 28.0907 35.6344 28.5959 35.4528 29.1025C35.2944 29.5446 35.1341 29.9863 34.9714 30.4268C34.7848 30.9315 34.5992 31.4368 34.4177 31.9434C34.2593 32.3852 34.0989 32.8263 33.9362 33.2666C33.7496 33.7715 33.5641 34.2775 33.3825 34.7842C33.2241 35.2262 33.0628 35.667 32.9001 36.1074C32.7135 36.6123 32.5289 37.1183 32.3474 37.625C32.1889 38.067 32.0277 38.5078 31.8649 38.9482C31.6784 39.453 31.4928 39.9582 31.3112 40.4648C31.1528 40.9069 30.9925 41.3485 30.8298 41.7891C30.6432 42.2939 30.4576 42.799 30.2761 43.3057C30.1176 43.7478 29.9574 44.1893 29.7946 44.6299C29.608 45.1347 29.4225 45.6398 29.2409 46.1465C29.0825 46.5886 28.9213 47.0302 28.7585 47.4707C28.5719 47.9754 28.3873 48.4808 28.2057 48.9873C28.0588 49.3973 27.9094 49.8063 27.7585 50.2148C27.665 50.4679 27.5724 50.7214 27.4792 50.9746C27.4441 51.0699 27.4089 51.1655 27.3737 51.2607C27.3153 51.419 27.2568 51.5779 27.1989 51.7363C27.1773 51.7956 27.1552 51.8548 27.1335 51.9141C27.1025 51.9977 27.0712 52.0813 27.0407 52.165C27.0313 52.1909 27.0225 52.2161 27.0134 52.2412C26.9722 52.3512 26.9312 52.4499 26.9323 52.5684C26.9581 52.6241 26.9579 52.6241 27.0085 52.667C27.0313 52.6797 27.0537 52.6928 27.0759 52.7051C27.1014 52.7196 27.1262 52.7339 27.1511 52.748C27.2078 52.7792 27.2646 52.8109 27.321 52.8428C27.3514 52.86 27.3813 52.8769 27.4108 52.8936C27.5584 52.9759 27.705 53.0598 27.8513 53.1445C27.9084 53.1777 27.9659 53.2102 28.0231 53.2432C28.1967 53.3431 28.3702 53.4439 28.5436 53.5439C28.6011 53.5771 28.659 53.6104 28.7165 53.6436C28.7457 53.6604 28.774 53.677 28.8024 53.6934C28.9175 53.7597 29.0331 53.8252 29.1481 53.8916C29.2057 53.9248 29.2635 53.958 29.321 53.9912C29.465 54.0743 29.6086 54.1582 29.7526 54.2412C29.8108 54.2747 29.8693 54.3083 29.9274 54.3418C29.9569 54.3588 29.9858 54.3751 30.0143 54.3916C30.1859 54.4904 30.3574 54.5899 30.528 54.6904C30.66 54.7682 30.7927 54.8455 30.9255 54.9219C30.9485 54.935 30.9706 54.9482 30.9929 54.9609C31.1138 55.0304 31.2335 55.0983 31.3649 55.1465C31.6481 55.1896 31.6481 55.1893 32.1774 54.8828C32.2365 54.8484 32.296 54.8145 32.3552 54.7803C32.4025 54.7529 32.4505 54.7247 32.4977 54.6973C32.6313 54.6198 32.7653 54.543 32.8991 54.4658C32.9562 54.4329 33.0129 54.3992 33.07 54.3662C33.0994 54.3493 33.1284 54.3329 33.1569 54.3164C33.6743 54.0179 33.6746 54.0183 34.1921 53.7197C34.2496 53.6865 34.3074 53.6533 34.3649 53.6201C34.5084 53.5373 34.6521 53.454 34.7956 53.3711C35.2251 53.1229 35.6558 52.8767 36.0866 52.6309C36.106 52.6198 36.1244 52.6084 36.1432 52.5977C36.1432 52.4918 36.1435 52.4916 36.1227 52.4346C36.1047 52.3924 36.0869 52.3497 36.071 52.3066C36.0637 52.2862 36.0566 52.2659 36.0495 52.2461C36.0415 52.2237 36.0338 52.2014 36.0261 52.1797C36.0085 52.1306 35.9909 52.0813 35.9733 52.0322C35.9636 52.005 35.9535 51.9786 35.944 51.9521C35.7568 51.4294 35.5672 50.9075 35.3747 50.3867C35.1745 49.8452 34.9762 49.3031 34.7809 48.7598C34.5863 48.2181 34.3897 47.6766 34.1901 47.1367C33.9895 46.594 33.7911 46.0504 33.5954 45.5059C33.4827 45.1921 33.3694 44.8785 33.2497 44.5674C33.2153 44.478 33.1812 44.3884 33.1472 44.2988C33.1256 44.2422 33.1034 44.1855 33.0817 44.1289C32.9147 43.7073 32.7781 43.3058 32.9313 42.8555C32.9427 42.8253 32.9535 42.7959 32.9645 42.7666C32.9775 42.7319 32.9906 42.6968 33.0036 42.6621C33.0416 42.5614 33.0802 42.4603 33.1179 42.3594C33.1263 42.3368 33.1341 42.3148 33.1423 42.293C33.2484 42.009 33.3527 41.7242 33.4567 41.4395C33.4674 41.4101 33.4785 41.381 33.489 41.3525C33.6718 40.8519 33.8536 40.3508 34.0349 39.8496C34.2049 39.3791 34.3755 38.9089 34.5485 38.4395C34.6747 38.0973 34.8003 37.7543 34.9235 37.4111C34.9367 37.3743 34.9503 37.3376 34.9636 37.3008C35.016 37.1549 35.0686 37.0083 35.1208 36.8623C35.2411 36.5249 35.3375 35.924 35.6354 35.7031C35.7818 35.6323 35.9027 35.6424 36.0573 35.6914C36.2178 35.781 36.2695 35.9074 36.3307 36.0732C36.3405 36.1004 36.3496 36.127 36.3591 36.1533C36.3913 36.2414 36.4239 36.3298 36.4557 36.418C36.4773 36.4778 36.4985 36.5379 36.5202 36.5977C36.5747 36.7473 36.6292 36.897 36.6833 37.0469C36.7494 37.2302 36.8162 37.4134 36.8825 37.5967C36.8889 37.6142 36.8949 37.6314 36.9011 37.6484C37.0185 37.9731 37.1372 38.2972 37.2565 38.6211C37.4283 39.0872 37.5984 39.5543 37.7673 40.0215C37.9503 40.5281 38.1338 41.0346 38.32 41.54C38.4821 41.9801 38.643 42.4213 38.8024 42.8623C38.9855 43.369 39.1699 43.8753 39.3561 44.3809C39.5303 44.8537 39.7025 45.3278 39.8737 45.8018C40.0437 46.2723 40.2142 46.7426 40.3874 47.2119C40.51 47.5441 40.6324 47.8765 40.7516 48.21C40.7729 48.2693 40.7939 48.3293 40.8151 48.3887C40.8779 48.5643 40.9412 48.7403 41.0036 48.916C41.0297 48.9896 41.0555 49.0632 41.0817 49.1367C41.094 49.1711 41.1066 49.2058 41.1188 49.2402C41.1307 49.274 41.1424 49.3071 41.154 49.3398C41.1649 49.3704 41.1756 49.4 41.1862 49.4297C41.2159 49.5131 41.2311 49.5614 41.2936 49.624C41.6764 49.4002 42.0599 49.1774 42.444 48.9561C42.6011 48.8656 42.7587 48.7751 42.9157 48.6846C42.9775 48.6489 43.0394 48.6128 43.1013 48.5771C43.1712 48.5368 43.2412 48.4964 43.3112 48.4561C43.3112 48.4032 43.3118 48.4027 43.2927 48.3447C43.2836 48.3204 43.2741 48.297 43.2653 48.2734C43.2553 48.2463 43.2458 48.2197 43.236 48.1934C43.2164 48.1408 43.1968 48.0878 43.1774 48.0352C43.1585 47.9838 43.1398 47.9322 43.1208 47.8809C42.8909 47.2595 42.6608 46.6383 42.4372 46.0146C42.2586 45.5164 42.0776 45.0189 41.8942 44.5225C41.7179 44.0452 41.5425 43.5672 41.3688 43.0889C41.2196 42.6777 41.0703 42.2667 40.9186 41.8564C40.7562 41.4173 40.5963 40.9765 40.4372 40.5361C40.2738 40.0841 40.1103 39.6317 39.944 39.1807C39.7564 38.6716 39.571 38.1619 39.3874 37.6514C39.1955 37.1179 39.0019 36.5845 38.8054 36.0527C38.6329 35.5863 38.4614 35.1195 38.2936 34.6514C38.1437 34.2328 37.9917 33.8145 37.8376 33.3975C37.8011 33.2988 37.7645 33.2002 37.7282 33.1016C37.7048 33.0378 37.6813 32.9739 37.6579 32.9102C37.6463 32.8787 37.635 32.848 37.6237 32.8174C37.5644 32.6562 37.5051 32.4945 37.444 32.334C37.4139 32.2551 37.3846 32.1758 37.3552 32.0967C37.3425 32.0626 37.3289 32.0282 37.3161 31.9941C37.1528 31.5798 37.1828 31.2458 37.3337 30.8301C37.3437 30.8026 37.3532 30.7757 37.363 30.749C37.3959 30.6584 37.4285 30.5671 37.4616 30.4766C37.4854 30.4115 37.5092 30.3463 37.5329 30.2812C37.6965 29.8321 37.8619 29.3832 38.027 28.9346C38.2039 28.4541 38.3784 27.9727 38.5524 27.4912C38.7033 27.0737 38.8552 26.6565 39.0095 26.2402C39.1099 25.9699 39.2085 25.6984 39.3054 25.4268C39.325 25.3718 39.3443 25.3167 39.364 25.2617C39.3707 25.2429 39.3779 25.2244 39.3845 25.2061C39.3977 25.169 39.4103 25.1318 39.4235 25.0947C39.4632 24.9839 39.5034 24.8727 39.5427 24.7617C39.5614 24.7086 39.5804 24.6556 39.5993 24.6025C39.6173 24.5522 39.635 24.5015 39.653 24.4512C39.7203 24.2591 39.7817 24.0585 39.9138 23.8994C40.0505 23.8153 40.1817 23.8027 40.3386 23.8193C40.5917 24.0329 40.5919 24.0334 40.7038 24.3564C40.7126 24.3809 40.7207 24.405 40.7292 24.4287C40.759 24.5107 40.7894 24.5927 40.819 24.6748C40.8407 24.7347 40.8618 24.7947 40.8835 24.8545C40.9302 24.983 40.9775 25.1117 41.0241 25.2402C41.1037 25.4597 41.1833 25.6792 41.2634 25.8984C41.2697 25.9157 41.2758 25.9325 41.2819 25.9492C41.3069 26.0177 41.3321 26.0868 41.3571 26.1553C41.4212 26.3307 41.4854 26.5062 41.5495 26.6816L41.6667 27.0039C41.7374 27.1975 41.8089 27.3913 41.8796 27.585C41.886 27.6025 41.8919 27.6197 41.8981 27.6367C41.9299 27.7236 41.9621 27.8106 41.9938 27.8975C42.051 28.054 42.1076 28.2107 42.1647 28.3672C42.1965 28.4543 42.2286 28.5418 42.2604 28.6289C42.2731 28.6637 42.2858 28.6986 42.2985 28.7334C42.9473 30.5104 43.577 32.2352 44.2067 33.96C44.2132 33.9777 44.22 33.9954 44.2263 34.0127C44.2389 34.0474 44.2517 34.0825 44.2643 34.1172C44.2961 34.2041 44.3274 34.2911 44.3591 34.3779C44.4162 34.5344 44.4738 34.6911 44.5309 34.8477C44.5625 34.9342 44.5941 35.0209 44.6257 35.1074C44.6321 35.125 44.638 35.1422 44.6442 35.1592C44.7357 35.4096 44.8273 35.6607 44.9186 35.9111C44.972 36.0573 45.0255 36.2034 45.0788 36.3496C45.0919 36.3856 45.1057 36.422 45.1188 36.458C45.2773 36.8924 45.4359 37.327 45.5964 37.7607C45.8305 38.3995 45.8309 38.3997 46.0612 39.04C46.2542 39.5766 46.4486 40.1126 46.6462 40.6475C46.8295 41.1436 47.0117 41.6405 47.1921 42.1377C47.3488 42.5697 47.5069 43.0014 47.6657 43.4326C47.9118 44.1008 48.1539 44.7711 48.3942 45.4414C48.3992 45.4553 48.404 45.4689 48.4089 45.4824C48.4619 45.4824 48.4617 45.4824 48.5143 45.4551C48.5367 45.4418 48.5591 45.4289 48.5807 45.416C48.606 45.4011 48.6304 45.3865 48.655 45.3721C48.7107 45.3389 48.767 45.3064 48.8229 45.2734C48.8532 45.2557 48.8824 45.238 48.9118 45.2207C49.0814 45.1209 49.2525 45.0231 49.4235 44.9258C49.6711 44.7849 49.9189 44.6428 50.1647 44.499C50.3298 44.4024 50.4951 44.3063 50.6608 44.2109C50.7794 44.1428 50.8979 44.0744 51.0163 44.0059C51.0878 43.9644 51.1593 43.9227 51.2311 43.8818C51.3776 43.7985 51.5358 43.7225 51.6208 43.5703C51.6299 43.5526 51.6393 43.5357 51.6481 43.5186C51.7506 43.32 51.7687 43.1428 51.7673 42.9209C51.767 42.8833 51.7672 42.8452 51.7673 42.8076C51.7678 42.7031 51.7686 42.5986 51.7682 42.4941C51.7679 42.3792 51.767 42.2643 51.7673 42.1494C51.7677 41.9477 51.7685 41.7456 51.7682 41.5439V37.1172C51.7686 35.9203 51.7678 34.7232 51.7673 33.5264C51.7668 32.4609 51.7668 31.3955 51.7673 30.3301C51.7678 29.131 51.7686 27.9315 51.7682 26.7324V21.6768C51.768 21.5602 51.767 21.4428 51.7673 21.3262V20.8877C51.7682 20.7581 51.7683 20.6299 51.7536 20.501C51.6784 20.2307 51.5416 20.0699 51.3015 19.9307C51.277 19.917 51.2529 19.9039 51.2292 19.8906C51.1767 19.8604 51.1244 19.83 51.072 19.7998C50.9882 19.7522 50.9044 19.7044 50.821 19.6562C50.6776 19.5732 50.5339 19.4898 50.3903 19.4072C50.2452 19.3238 50.0998 19.2399 49.9548 19.1562C49.8976 19.1232 49.8401 19.0906 49.7829 19.0576C49.7536 19.0407 49.7245 19.0242 49.696 19.0078C48.8908 18.5433 48.0861 18.0778 47.2809 17.6133C47.2234 17.5801 47.1656 17.5469 47.1081 17.5137C46.964 17.4306 46.8196 17.3477 46.6755 17.2646C46.3952 17.1032 46.1149 16.9416 45.8356 16.7783C45.5794 16.6284 45.3221 16.48 45.0641 16.333C44.8323 16.2009 44.6002 16.0674 44.3698 15.9326C44.0935 15.771 43.8161 15.611 43.5388 15.4512C43.3943 15.368 43.2496 15.2845 43.1052 15.2012L42.8474 15.0518C41.1217 14.0562 39.3953 13.061 37.6696 12.0654C37.6123 12.0323 37.5551 11.9989 37.4977 11.9658C37.3537 11.8827 37.2093 11.7989 37.0651 11.7158C36.7848 11.5543 36.5045 11.3928 36.2253 11.2295C35.9689 11.0795 35.7109 10.9313 35.4528 10.7842C35.221 10.6521 34.9898 10.5185 34.7595 10.3838C34.4831 10.2221 34.2058 10.0622 33.9284 9.90234C33.7552 9.80257 33.582 9.70245 33.4089 9.60254C33.2638 9.51885 33.1184 9.43514 32.9733 9.35156C32.9278 9.32532 32.9274 9.32564 32.8825 9.2998C32.8229 9.26543 32.7634 9.23065 32.7038 9.19629C32.5703 9.11953 32.4365 9.04298 32.3044 8.96387C32.1782 8.88749 32.0527 8.80978 31.9225 8.74023C31.512 8.55044 31.2979 8.62464 30.9206 8.84375C30.8618 8.8782 30.8027 8.91301 30.7438 8.94727C30.6969 8.97454 30.6501 9.00196 30.6032 9.0293C30.4698 9.1071 30.3356 9.18463 30.2018 9.26172C30.1449 9.29455 30.0879 9.32749 30.0309 9.36035C30.0016 9.3773 29.9725 9.39371 29.944 9.41016C29.8578 9.45989 29.7714 9.50984 29.6852 9.55957C29.656 9.57644 29.6277 9.59299 29.5993 9.60938C29.5418 9.64256 29.484 9.6758 29.4265 9.70898C29.2826 9.792 29.1387 9.87508 28.9948 9.95801C28.7144 10.1196 28.4334 10.281 28.154 10.4443C27.9134 10.5851 27.6725 10.7252 27.4304 10.8633C27.1827 11.0044 26.9352 11.1461 26.6891 11.29C26.4127 11.4517 26.1356 11.6126 25.8581 11.7725C25.7137 11.8556 25.5688 11.9382 25.4245 12.0215C25.367 12.0547 25.3091 12.0879 25.2516 12.1211C25.1654 12.1708 25.1637 12.1725 20.0749 15.1084C20.0456 15.1253 20.0173 15.1418 19.989 15.1582C19.9314 15.1914 19.8736 15.2246 19.8161 15.2578C19.6721 15.3409 19.5275 15.4238 19.3835 15.5068C19.1032 15.6683 18.8229 15.8299 18.5436 15.9932C18.303 16.134 18.0613 16.274 17.819 16.4121C17.5716 16.5531 17.3247 16.6951 17.0788 16.8389C16.8025 17.0005 16.525 17.1605 16.2477 17.3203C16.1033 17.4035 15.9585 17.487 15.8141 17.5703C15.7567 17.6035 15.6988 17.6368 15.6413 17.6699C15.5551 17.7197 15.5544 17.7197 13.2253 19.0635C13.196 19.0804 13.1677 19.0969 13.1393 19.1133C13.0818 19.1465 13.024 19.1797 12.9665 19.2129C12.8054 19.3059 12.6444 19.3996 12.4831 19.4922C12.3496 19.5688 12.2159 19.6455 12.0827 19.7227C12.0122 19.7636 11.9416 19.8043 11.8708 19.8447C11.7501 19.9135 11.6329 19.9817 11.528 20.0732C11.3184 20.2929 11.2779 20.5379 11.28 20.833C11.2802 20.8704 11.281 20.9079 11.2809 20.9453C11.2804 21.05 11.2796 21.1551 11.28 21.2598C11.2804 21.3747 11.2812 21.4896 11.2809 21.6045C11.2805 21.8062 11.2797 22.0082 11.28 22.21C11.2804 22.512 11.2812 22.8142 11.2809 23.1162V26.6367C11.2808 27.8338 11.2812 29.0314 11.2819 30.2285V37.3115C11.2819 37.3752 11.2829 37.4393 11.2829 37.5029V41.4678C11.2827 41.6719 11.2835 41.876 11.2839 42.0801V43.0996C11.2865 43.176 11.2938 43.252 11.3112 43.3271C11.4191 43.6586 11.4194 43.6584 12.0612 44.0273C12.1194 44.0606 12.1779 44.0945 12.236 44.1279C12.2825 44.1546 12.3292 44.1813 12.3757 44.208C12.5098 44.2849 12.6441 44.3622 12.778 44.4395C12.8072 44.4563 12.8356 44.4729 12.864 44.4893C13.031 44.5856 13.1985 44.682 13.3649 44.7793C13.4686 44.84 13.5726 44.9005 13.6765 44.9609C13.7481 45.0026 13.8198 45.044 13.8913 45.0859C13.9768 45.1361 14.0624 45.1865 14.1481 45.2363C14.1819 45.2559 14.216 45.2753 14.2497 45.2949C14.2823 45.3141 14.3147 45.3343 14.3474 45.3535C14.3781 45.3713 14.4083 45.388 14.4382 45.4053C14.4656 45.4213 14.4926 45.4376 14.5192 45.4531C14.586 45.483 14.5862 45.4826 14.6657 45.4561C14.6751 45.4359 14.6849 45.4161 14.694 45.3965C14.7085 45.3521 14.7231 45.3079 14.738 45.2637C14.7442 45.2453 14.7495 45.2268 14.7556 45.209C14.7959 45.0893 14.8397 44.971 14.8835 44.8525C14.9052 44.7941 14.9273 44.7353 14.9489 44.6768C14.9661 44.6301 14.9662 44.6297 14.9831 44.584C15.0508 44.4007 15.1187 44.2175 15.1862 44.0342C15.1927 44.0165 15.1985 43.9986 15.2048 43.9814C15.5048 43.1672 15.8032 42.3519 16.0964 41.5352C16.2556 41.0914 16.4166 40.6484 16.5798 40.2061C16.5918 40.1734 16.6042 40.142 16.6159 40.1104C16.6395 40.0464 16.6626 39.9819 16.6862 39.918L16.7565 39.7266C16.8786 39.3959 17.0007 39.0654 17.1218 38.7344C17.1324 38.7052 17.1427 38.6767 17.153 38.6484C17.3153 38.2044 17.4757 37.7595 17.6354 37.3145C17.7947 36.8707 17.9566 36.4276 18.1198 35.9854C18.1319 35.9527 18.1433 35.9204 18.155 35.8887C18.1785 35.8248 18.2027 35.7611 18.2263 35.6973L18.2966 35.5059C18.4187 35.1751 18.5407 34.8438 18.6618 34.5127C18.6775 34.4697 18.6776 34.4692 18.6931 34.4268C18.8554 33.9827 19.0158 33.5378 19.1755 33.0928C19.3456 32.6186 19.5185 32.1454 19.6931 31.6729C19.8694 31.1955 20.0448 30.7175 20.2184 30.2393C20.3677 29.8281 20.5169 29.417 20.6686 29.0068C20.8161 28.608 20.9616 28.2085 21.1061 27.8086C21.312 27.2392 21.5186 26.6693 21.7263 26.1006C21.7328 26.0826 21.7394 26.0653 21.7458 26.0479C21.926 25.5543 22.1073 25.0605 22.2888 24.5674C22.4618 24.0974 22.6322 23.6263 22.8024 23.1553C22.9831 22.6554 23.1653 22.1558 23.3493 21.6572C23.4575 21.364 23.5653 21.0706 23.6706 20.7764C23.6897 20.723 23.7081 20.6695 23.7272 20.6162C23.7337 20.5981 23.7405 20.5801 23.7468 20.5625C23.7594 20.5271 23.7722 20.4914 23.7849 20.4561C23.816 20.3692 23.8468 20.2822 23.8776 20.1953C23.9067 20.1132 23.9361 20.0312 23.9655 19.9492C23.9767 19.918 23.9878 19.8868 23.9987 19.8564C24.0708 19.6512 24.1423 19.4546 24.2878 19.2891C24.5447 19.0438 24.8563 19.0211 25.1921 19.0215C25.2412 19.0216 25.2904 19.0209 25.3395 19.0205C25.4745 19.0192 25.6099 19.0188 25.7448 19.0186C25.8883 19.0184 26.032 19.0175 26.1755 19.0166C26.416 19.0151 26.6566 19.0142 26.8972 19.0137C27.1768 19.0131 27.4564 19.0117 27.736 19.0098C28.0075 19.0079 28.279 19.0068 28.5505 19.0059C28.6655 19.0055 28.7811 19.0046 28.8962 19.0039C29.0335 19.003 29.1709 19.003 29.3083 19.0029C29.359 19.0029 29.41 19.002 29.4606 19.002C29.5311 19.0013 29.602 19.0009 29.6725 19.001C29.6944 19.0011 29.7158 19.0009 29.737 19.001C29.7664 19.0005 29.7666 19.0005 29.7956 19C29.972 19.0019 30.111 19.0616 30.236 19.1865C30.3398 19.4287 30.266 19.6644 30.1755 19.8994C30.143 19.9819 30.1102 20.0646 30.0788 20.1475C30.0609 20.1945 30.043 20.242 30.0251 20.2891C29.9039 20.6057 29.7874 20.9246 29.6716 21.2432C29.6128 21.4047 29.5537 21.5661 29.4948 21.7275C29.4612 21.8196 29.4278 21.9119 29.3942 22.0039C29.3159 22.2185 29.2372 22.4338 29.1589 22.6484C29.1525 22.666 29.1465 22.6831 29.1403 22.7002C29.1024 22.8041 29.064 22.9078 29.0261 23.0117C28.9691 23.1678 28.9122 23.3244 28.8552 23.4805C28.8488 23.498 28.8428 23.5152 28.8366 23.5322C28.7462 23.7798 28.6554 24.0278 28.5651 24.2754C28.5129 24.4186 28.4611 24.5619 28.4089 24.7051C28.3959 24.7406 28.3828 24.776 28.3698 24.8115C28.2397 25.1681 28.1093 25.5247 27.9782 25.8809C27.9681 25.9084 27.9587 25.9352 27.9489 25.9619C27.9294 26.015 27.9099 26.0681 27.8903 26.1211C27.8805 26.1478 27.8706 26.1743 27.861 26.2002C27.8512 26.2268 27.8412 26.2525 27.8317 26.2783C27.6548 26.7587 27.4806 27.24 27.3073 27.7217C27.1278 28.2209 26.9471 28.7201 26.7634 29.2178C26.5824 29.7075 26.4016 30.1977 26.2233 30.6885C26.2069 30.7336 26.2072 30.7339 26.1911 30.7783C26.18 30.8089 26.1687 30.8385 26.1579 30.8682C26.136 30.9286 26.1144 30.9894 26.0925 31.0498C26.0812 31.0809 26.0702 31.1114 26.0593 31.1416C25.9204 31.524 25.7809 31.9069 25.6413 32.2891C25.6285 32.3241 25.615 32.3595 25.6022 32.3945C25.5507 32.5358 25.4995 32.6771 25.4479 32.8184C25.3262 33.1516 25.2044 33.4851 25.0827 33.8184C25.0383 33.9399 24.9933 34.062 24.9489 34.1836C24.8269 34.5179 24.7047 34.8522 24.5827 35.1865C24.5305 35.3297 24.4787 35.473 24.4265 35.6162C24.4135 35.6516 24.4003 35.6872 24.3874 35.7227C24.2573 36.0791 24.1278 36.436 23.9968 36.792C23.9866 36.8195 23.9763 36.8464 23.9665 36.873C23.9469 36.9263 23.9275 36.98 23.9079 37.0332C23.8981 37.0598 23.8881 37.0855 23.8786 37.1113C23.8641 37.1507 23.8644 37.1512 23.8503 37.1895C23.6733 37.6699 23.4992 38.152 23.3259 38.6338C23.1351 39.1642 22.9421 39.6939 22.7468 40.2227C22.5635 40.7188 22.3813 41.2157 22.2009 41.7129C22.0441 42.1449 21.8861 42.5766 21.7272 43.0078C21.5689 43.4375 21.4121 43.8678 21.2575 44.2988C21.0878 44.7719 20.9168 45.2444 20.7429 45.7158C20.7194 45.7793 20.696 45.8428 20.6725 45.9062C20.6375 46.0012 20.6021 46.0965 20.5671 46.1914C20.4503 46.5079 20.3336 46.8248 20.2175 47.1416C20.1955 47.2015 20.173 47.2614 20.1511 47.3213C20.0384 47.6276 19.9271 47.9342 19.8249 48.2441C19.7609 48.4384 19.6936 48.6308 19.6218 48.8223C19.5862 48.9164 19.5505 49.0112 19.5153 49.1055C19.5074 49.1267 19.4996 49.1473 19.4919 49.168C19.3876 49.447 19.2842 49.7272 19.1813 50.0068C19.1709 50.0353 19.1612 50.0632 19.1511 50.0908C18.9623 50.604 18.7772 51.1184 18.5974 51.6348C18.52 51.5875 18.4422 51.5409 18.364 51.4951C18.3456 51.4844 18.3272 51.473 18.3083 51.4619C18.0453 51.308 17.7813 51.1559 17.5173 51.0039C17.3721 50.9203 17.2268 50.8366 17.0817 50.7529C17.0242 50.7198 16.9664 50.6865 16.9089 50.6533C16.3338 50.3215 15.7584 49.99 15.1833 49.6582L14.9255 49.5088C14.7496 49.4073 14.5731 49.3055 14.3972 49.2041C14.3391 49.1706 14.2804 49.1371 14.2224 49.1035C14.0885 49.0262 13.9546 48.9491 13.82 48.873C13.7963 48.8595 13.7722 48.8459 13.7477 48.832C13.7037 48.807 13.6592 48.7816 13.6149 48.7568C13.5662 48.729 13.5186 48.6992 13.4714 48.6689V48.6162C13.4434 48.6057 13.443 48.6053 13.4147 48.5947C13.3343 48.561 13.2609 48.521 13.1852 48.4775C13.1554 48.4605 13.1251 48.4434 13.0944 48.4258C13.0624 48.4073 13.0298 48.3886 12.9977 48.3701C12.9643 48.3509 12.9306 48.3317 12.8972 48.3125C12.6638 48.1785 12.4312 48.0432 12.1989 47.9072C11.9955 47.7883 11.7914 47.6704 11.5866 47.5537C11.3287 47.4068 11.0711 47.2586 10.8151 47.1084C10.6764 47.0271 10.537 46.9465 10.3972 46.8672C9.30436 46.2464 8.46676 45.4436 8.11005 44.208C7.96146 43.6587 7.96411 43.1017 7.96552 42.5371C7.96572 42.4191 7.96571 42.3006 7.96552 42.1826C7.96523 41.9762 7.96433 41.7699 7.96454 41.5635V37.0693C7.9643 35.8554 7.96509 34.6407 7.96552 33.4268C7.96589 32.349 7.9659 31.2711 7.96552 30.1934C7.96509 28.9816 7.96429 27.7694 7.96454 26.5576V22.0811C7.96436 21.8769 7.96517 21.6719 7.96552 21.4678C7.9657 21.3519 7.9658 21.236 7.96552 21.1201C7.96424 20.5654 7.96332 20.0107 8.12665 19.4746C8.1334 19.4519 8.1402 19.4287 8.14716 19.4053C8.5032 18.2512 9.3087 17.4957 10.3327 16.9131C10.4466 16.8482 10.56 16.7824 10.6735 16.7168C10.8474 16.6163 11.022 16.5162 11.196 16.416C11.283 16.3659 11.3697 16.3148 11.4567 16.2646C11.4853 16.2482 11.5142 16.2318 11.5436 16.2148C11.734 16.105 11.9242 15.9948 12.114 15.8838C12.3601 15.7399 12.6075 15.5972 12.8552 15.4561C13.0972 15.3181 13.3383 15.1787 13.5788 15.0381C13.8582 14.8747 14.1392 14.7133 14.4196 14.5518C14.5637 14.4688 14.7072 14.3849 14.8513 14.3018C14.9088 14.2686 14.9666 14.2353 15.0241 14.2021C15.0525 14.1858 15.0808 14.1692 15.11 14.1523C20.887 10.8195 20.8911 10.8173 20.9772 10.7676C21.0347 10.7344 21.0926 10.7011 21.1501 10.668C21.2944 10.5847 21.4393 10.5021 21.5837 10.4189C21.8612 10.2591 22.1383 10.0982 22.4147 9.93652C22.6608 9.79262 22.9083 9.6509 23.1559 9.50977C23.3981 9.37173 23.639 9.23156 23.8796 9.09082C24.159 8.92744 24.4399 8.76604 24.7204 8.60449C24.8643 8.52157 25.0082 8.43849 25.152 8.35547C25.2095 8.3223 25.2674 8.28903 25.3249 8.25586C25.3533 8.23949 25.3816 8.22291 25.4108 8.20605C26.4175 7.62531 27.4247 7.04461 28.4313 6.46387L28.6891 6.31445C28.8367 6.22952 28.9839 6.14403 29.1306 6.05762C29.4345 5.87905 29.7339 5.70611 30.0641 5.58105C30.095 5.56901 30.1261 5.55636 30.1579 5.54395ZM19.8337 52.3564C19.9703 52.4369 20.1069 52.5162 20.2448 52.5928C20.1062 52.5158 19.9687 52.4363 19.8317 52.3555C19.766 52.3167 19.6995 52.2794 19.6335 52.2412C19.7001 52.2798 19.7673 52.3174 19.8337 52.3564ZM19.1735 51.9766C19.2351 52.0116 19.2966 52.0469 19.3581 52.082C19.2974 52.0476 19.2362 52.0139 19.1755 51.9795C19.136 51.957 19.0975 51.9329 19.0583 51.9102C19.0967 51.9322 19.135 51.9546 19.1735 51.9766Z" fill="#9CCBEC"/>
<path d="M33.9482 18.9996C33.9998 18.9994 34.0513 18.9991 34.1028 18.9989C34.242 18.9983 34.3812 18.9983 34.5204 18.9986C34.6368 18.9987 34.7532 18.9985 34.8696 18.9983C35.1441 18.9979 35.4187 18.998 35.6932 18.9984C35.9762 18.9989 36.2592 18.9984 36.5422 18.9976C36.7856 18.9969 37.0289 18.9967 37.2723 18.9969C37.4175 18.997 37.5627 18.997 37.7079 18.9964C37.8443 18.996 37.9807 18.9961 38.1171 18.9968C38.1671 18.9969 38.2171 18.9968 38.2671 18.9965C38.3355 18.996 38.4038 18.9964 38.4721 18.997C38.4919 18.9967 38.5116 18.9964 38.5319 18.9961C38.6795 18.9987 38.7744 19.0454 38.8779 19.1465C38.9637 19.2932 38.9833 19.4384 38.9435 19.6027C38.9232 19.6663 38.9009 19.7288 38.8777 19.7913C38.8693 19.8147 38.8609 19.8382 38.8522 19.8623C38.8246 19.9391 38.7965 20.0157 38.7684 20.0923C38.7488 20.1465 38.7292 20.2007 38.7096 20.2549C38.6512 20.4166 38.5921 20.578 38.5328 20.7394C38.5169 20.7827 38.501 20.8259 38.4852 20.8692C38.4273 21.027 38.3691 21.1848 38.3107 21.3424C38.1681 21.7275 38.0285 22.1137 37.889 22.4999C37.7155 22.9799 37.5411 23.4595 37.3647 23.9385C37.1905 24.4113 37.0182 24.8849 36.847 25.3588C36.6662 25.8591 36.4841 26.3588 36.3002 26.858C36.1357 27.3046 35.9733 27.7519 35.8116 28.1995C35.6308 28.6998 35.4487 29.1995 35.2648 29.6987C35.1004 30.1453 34.9379 30.5926 34.7762 31.0402C34.5954 31.5404 34.4133 32.0402 34.2294 32.5393C34.065 32.9859 33.9025 33.4332 33.7408 33.8808C33.56 34.3811 33.3779 34.8809 33.1941 35.38C33.0296 35.8266 32.8672 36.2739 32.7054 36.7215C32.5246 37.2218 32.3426 37.7216 32.1587 38.2207C31.9942 38.6673 31.8318 39.1146 31.67 39.5622C31.4893 40.0624 31.3072 40.562 31.1234 41.0611C30.9566 41.5139 30.792 41.9674 30.628 42.4211C30.4695 42.8596 30.3104 43.2979 30.1486 43.7352C30.0011 44.1338 29.8565 44.5335 29.7121 44.9333C29.5386 45.4133 29.3642 45.8929 29.1878 46.3719C29.0135 46.8447 28.8413 47.3183 28.6701 47.7922C28.4893 48.2925 28.3072 48.7922 28.1233 49.2914C27.9588 49.738 27.7964 50.1853 27.6347 50.6329C27.4634 51.1068 27.2912 51.5804 27.117 52.0532C26.9171 52.5958 26.7199 53.1393 26.5234 53.6831C26.4166 53.9786 26.3096 54.274 26.2014 54.569C26.1922 54.5941 26.183 54.6191 26.1735 54.645C26.1315 54.7594 26.0894 54.8739 26.0472 54.9883C25.9567 55.2342 25.8707 55.481 25.7896 55.7302C25.6855 55.6981 25.5949 55.6612 25.5015 55.6055C25.4771 55.5911 25.4527 55.5767 25.4275 55.5619C25.3882 55.5384 25.3882 55.5384 25.3482 55.5145C25.2909 55.4806 25.2336 55.4468 25.1762 55.413C25.1313 55.3865 25.1313 55.3865 25.0855 55.3595C24.9472 55.2783 24.8078 55.199 24.6684 55.1197C24.3958 54.9646 24.1242 54.8078 23.8536 54.6494C23.6501 54.5304 23.4457 54.4132 23.2409 54.2966C22.9841 54.1502 22.7282 54.0023 22.4731 53.8529C22.2541 53.7249 22.0338 53.5989 21.8134 53.4733C21.5355 53.315 21.259 53.1544 20.9829 52.9928C20.8776 52.9311 20.7719 52.8702 20.6657 52.8098C20.6797 52.6238 20.7341 52.4661 20.8 52.2924C20.811 52.2627 20.8221 52.233 20.8334 52.2025C20.8634 52.1219 20.8936 52.0414 20.9239 51.9609C20.9754 51.8238 21.0262 51.6865 21.0772 51.5492C21.0968 51.4965 21.1164 51.4439 21.136 51.3912C21.2577 51.0641 21.3761 50.7358 21.4937 50.4072C21.6581 49.9487 21.8246 49.491 21.993 49.034C22.1518 48.6028 22.3093 48.1711 22.466 47.7391C22.6487 47.2358 22.833 46.7331 23.0186 46.2308C23.2039 45.7291 23.3869 45.2267 23.5674 44.7232C23.7221 44.2922 23.8789 43.862 24.0372 43.4323C24.196 43.0011 24.3535 42.5694 24.5103 42.1374C24.6929 41.6341 24.8773 41.1314 25.0628 40.6291C25.2481 40.1274 25.4311 39.6249 25.6117 39.1215C25.7663 38.6905 25.9231 38.2603 26.0814 37.8306C26.2403 37.3993 26.3977 36.9676 26.5545 36.5357C26.7371 36.0323 26.9215 35.5297 27.107 35.0274C27.2923 34.5257 27.4753 34.0232 27.6559 33.5198C27.8105 33.0888 27.9674 32.6586 28.1257 32.2288C28.2845 31.7976 28.4419 31.3659 28.5987 30.934C28.7814 30.4306 28.9657 29.928 29.1512 29.4257C29.3366 28.924 29.5196 28.4215 29.7001 27.918C29.8541 27.4889 30.0103 27.0607 30.1679 26.633C30.3301 26.1929 30.4903 25.7521 30.6497 25.3109C30.8062 24.8779 30.9628 24.445 31.1225 24.0131C31.2768 23.5956 31.4298 23.1775 31.5824 22.7593C31.6019 22.7058 31.6215 22.6522 31.6411 22.5986C31.7696 22.2464 31.8981 21.8942 32.0265 21.5419C32.0814 21.3912 32.1364 21.2406 32.1913 21.0899C32.2238 21.0008 32.2563 20.9117 32.2888 20.8226C32.3478 20.6606 32.4069 20.4987 32.4663 20.3369C32.5108 20.2159 32.5546 20.0946 32.5979 19.9732C32.6186 19.916 32.6393 19.8589 32.66 19.8018C32.669 19.7761 32.6779 19.7505 32.6872 19.7241C32.784 19.4595 32.9486 19.2264 33.2005 19.0888C33.4447 18.988 33.6887 18.9986 33.9482 18.9996Z" fill="#FEFEFE"/>
<path d="M30.2596 19.1866C30.3424 19.365 30.3211 19.5634 30.2608 19.7475C30.2415 19.7996 30.2216 19.8515 30.2013 19.9033C30.1905 19.932 30.1797 19.9608 30.1686 19.9904C30.133 20.0849 30.0967 20.1791 30.0604 20.2734C30.0352 20.3403 30.01 20.4071 29.9848 20.474C29.9719 20.5084 29.959 20.5428 29.9461 20.5772C29.9364 20.603 29.9364 20.603 29.9264 20.6294C29.9065 20.6824 29.8865 20.7354 29.8665 20.7884C29.7334 21.1405 29.6058 21.4945 29.4787 21.8489C29.4173 22.0203 29.3556 22.1916 29.2939 22.363C29.2822 22.3953 29.2705 22.4277 29.2585 22.4611C29.1658 22.7184 29.0719 22.9753 28.9769 23.2319C28.8165 23.6657 28.6576 24.1 28.4991 24.5344C28.4859 24.5704 28.4728 24.6064 28.4597 24.6423C28.4064 24.7884 28.3531 24.9345 28.2998 25.0806C28.2139 25.3162 28.1279 25.5518 28.0418 25.7874C27.984 25.9455 27.9263 26.1036 27.8685 26.2617C27.8622 26.2791 27.8559 26.2965 27.8493 26.3144C27.7097 26.6965 27.5703 27.0788 27.4314 27.4612C27.4149 27.5066 27.4149 27.5066 27.3981 27.5529C27.3761 27.6135 27.3541 27.674 27.3322 27.7346C27.3214 27.7643 27.3105 27.7941 27.2994 27.8248C27.2886 27.8545 27.2778 27.8842 27.2667 27.9149C27.0884 28.4058 26.908 28.8958 26.727 29.3858C26.5433 29.8834 26.3623 30.382 26.1827 30.8812C26.0094 31.3629 25.8353 31.8443 25.6584 32.3247C25.6489 32.3505 25.6394 32.3764 25.6296 32.4029C25.62 32.4289 25.6105 32.4548 25.6006 32.4816C25.581 32.5348 25.5614 32.588 25.5418 32.6412C25.532 32.668 25.5221 32.6947 25.512 32.7223C25.3809 33.0785 25.2509 33.435 25.1208 33.7915C25.1078 33.827 25.0949 33.8625 25.0819 33.8981C25.0296 34.0413 24.9773 34.1846 24.9251 34.3279C24.8031 34.6623 24.681 34.9968 24.5589 35.3312C24.5145 35.4527 24.4701 35.5743 24.4258 35.6958C24.3041 36.0292 24.1823 36.3626 24.0606 36.6959C24.0089 36.8374 23.9572 36.9789 23.9056 37.1204C23.8927 37.1555 23.8799 37.1907 23.867 37.2259C23.7275 37.608 23.588 37.9902 23.4492 38.3726C23.4327 38.418 23.4327 38.418 23.4159 38.4643C23.3939 38.5249 23.3719 38.5854 23.3499 38.646C23.3391 38.6757 23.3283 38.7055 23.3171 38.7362C23.3064 38.7659 23.2956 38.7956 23.2844 38.8263C23.1062 39.3172 22.9257 39.8072 22.7448 40.2972C22.561 40.7948 22.38 41.2934 22.2005 41.7926C22.0272 42.2743 21.8531 42.7557 21.6761 43.2361C21.6666 43.2619 21.6571 43.2878 21.6473 43.3143C21.6378 43.3403 21.6282 43.3662 21.6184 43.393C21.5988 43.4462 21.5792 43.4994 21.5596 43.5526C21.5497 43.5794 21.5399 43.6061 21.5297 43.6337C21.3986 43.9898 21.2686 44.3464 21.1385 44.7029C21.1256 44.7383 21.1127 44.7736 21.0998 44.8089C21.0478 44.9516 20.9957 45.0943 20.9437 45.237C20.8509 45.4913 20.7581 45.7455 20.6652 45.9998C20.5262 46.3803 20.3873 46.7609 20.2484 47.1415C20.2156 47.2315 20.1827 47.3216 20.1498 47.4117C20.101 47.5453 20.0522 47.679 20.0035 47.8127C19.9864 47.8597 19.9693 47.9067 19.9521 47.9537C19.8615 48.2018 19.7728 48.4504 19.6864 48.7C19.5746 49.0233 19.4576 49.3447 19.3399 49.6658C19.3181 49.7254 19.2963 49.7849 19.2745 49.8444C19.0582 50.4353 18.84 51.0255 18.6214 51.6155C18.525 51.5792 18.438 51.5359 18.349 51.4841C18.3218 51.4683 18.2947 51.4526 18.2667 51.4364C18.223 51.4109 18.223 51.4109 18.1784 51.3848C18.1475 51.3669 18.1167 51.349 18.0858 51.3311C18.0217 51.2939 17.9577 51.2567 17.8937 51.2195C17.7471 51.1343 17.6002 51.0497 17.4533 50.965C17.3957 50.9318 17.3381 50.8986 17.2805 50.8654C17.252 50.849 17.2235 50.8325 17.1942 50.8156C17.1086 50.7662 17.023 50.7168 16.9374 50.6673C16.624 50.4862 16.3101 50.306 15.9956 50.1267C15.7557 49.9898 15.5168 49.8513 15.2784 49.7117C15.0593 49.5836 14.8391 49.4577 14.6187 49.3321C14.3408 49.1737 14.0643 49.0131 13.7882 48.8515C13.6829 48.7899 13.5771 48.7289 13.471 48.6686C13.6609 48.1278 13.8565 47.5893 14.0553 47.0517C14.1787 46.7181 14.3011 46.3841 14.4236 46.0502C14.4535 45.9687 14.4834 45.8872 14.5133 45.8057C14.5222 45.7816 14.5311 45.7574 14.5402 45.7325C14.5766 45.6333 14.6132 45.5341 14.6506 45.4351C14.7091 45.2796 14.7645 45.123 14.8205 44.9666C14.8395 44.9135 14.8586 44.8604 14.8776 44.8073C14.8909 44.7702 14.9042 44.7331 14.9175 44.696C15.3136 43.5911 15.3136 43.5911 15.4887 43.1183C15.499 43.0904 15.499 43.0904 15.5096 43.0619C15.5166 43.043 15.5236 43.024 15.5308 43.0045C15.5455 42.9649 15.5602 42.9252 15.5749 42.8855C15.5861 42.8551 15.5861 42.8551 15.5976 42.8241C15.7221 42.4873 15.8451 42.1498 15.9682 41.8125C15.9747 41.7946 15.9812 41.7768 15.988 41.7584C16.1977 41.1839 16.4063 40.6089 16.6142 40.0337C16.7589 39.6337 16.9043 39.2341 17.0519 38.8351C17.2036 38.4248 17.3528 38.0137 17.5021 37.6025C17.6757 37.1242 17.8511 36.6466 18.0274 36.1693C18.202 35.6966 18.3749 35.2233 18.5451 34.7489C18.7048 34.3038 18.8656 33.8591 19.0279 33.4149C19.0435 33.3724 19.0435 33.3724 19.0593 33.329C19.1804 32.9979 19.302 32.667 19.4241 32.3362C19.4357 32.3047 19.4473 32.2732 19.4593 32.2407C19.4768 32.1933 19.4768 32.1933 19.4947 32.145C19.5183 32.081 19.5419 32.017 19.5655 31.9531C19.5772 31.9214 19.5889 31.8897 19.601 31.857C19.7642 31.4146 19.9256 30.9716 20.0849 30.5277C20.2446 30.0826 20.4054 29.6379 20.5677 29.1937C20.5833 29.1512 20.5833 29.1512 20.5991 29.1078C20.7202 28.7767 20.8418 28.4458 20.9639 28.1151C20.9755 28.0835 20.9872 28.052 20.9991 28.0195C21.0108 27.9879 21.0225 27.9563 21.0345 27.9238C21.0581 27.8598 21.0817 27.7958 21.1053 27.7319C21.117 27.7002 21.1287 27.6685 21.1408 27.6358C21.304 27.1934 21.4654 26.7504 21.6247 26.3065C21.7844 25.8614 21.9452 25.4167 22.1075 24.9725C22.1231 24.93 22.1231 24.93 22.1389 24.8866C22.26 24.5555 22.3816 24.2246 22.5037 23.8939C22.5211 23.8466 22.5211 23.8466 22.5389 23.7983C22.5506 23.7667 22.5623 23.7351 22.5743 23.7026C22.5979 23.6386 22.6215 23.5746 22.6451 23.5107C22.6627 23.4631 22.6627 23.4631 22.6806 23.4146C22.8538 22.9453 23.0246 22.4752 23.1935 22.0044C23.34 21.5963 23.4874 21.1887 23.6361 20.7814C23.6575 20.7228 23.6789 20.6641 23.7003 20.6054C23.768 20.4199 23.836 20.2346 23.9045 20.0494C23.9142 20.0232 23.9239 19.9969 23.9339 19.9699C23.9623 19.893 23.991 19.8163 24.0197 19.7395C24.0282 19.7166 24.0367 19.6937 24.0454 19.6701C24.1453 19.4055 24.2871 19.2248 24.5417 19.0937C24.692 19.0295 24.8105 19.0023 24.9731 19.0033C25.0046 19.003 25.0046 19.003 25.0367 19.0027C25.1065 19.0021 25.1762 19.0021 25.246 19.0021C25.2963 19.0018 25.3465 19.0015 25.3968 19.0012C25.5329 19.0003 25.6689 19 25.805 18.9997C25.9476 18.9994 26.0901 18.9986 26.2326 18.9979C26.4719 18.9967 26.7112 18.9959 26.9505 18.9952C27.2575 18.9944 27.5646 18.993 27.8716 18.9916C28.1358 18.9903 28.4 18.9892 28.6641 18.9882C28.749 18.9879 28.8338 18.9875 28.9187 18.9872C29.052 18.9866 29.1853 18.9862 29.3186 18.9858C29.3675 18.9857 29.4164 18.9855 29.4653 18.9853C29.5321 18.985 29.5989 18.9849 29.6657 18.9848C29.685 18.9846 29.7043 18.9845 29.7242 18.9844C29.954 18.9845 30.0973 19.0158 30.2596 19.1866Z" fill="#FEFEFE"/>
<path d="M40.426 23.8371C40.5728 23.9634 40.6337 24.0916 40.697 24.27C40.7058 24.2941 40.7146 24.3182 40.7236 24.343C40.753 24.4238 40.782 24.5046 40.811 24.5855C40.832 24.6435 40.853 24.7015 40.8741 24.7594C40.9195 24.8845 40.9648 25.0096 41.01 25.1348C41.082 25.3339 41.1545 25.5328 41.2272 25.7316C41.2397 25.7656 41.2521 25.7996 41.2645 25.8337C41.2834 25.8852 41.3023 25.9368 41.3211 25.9884C41.3924 26.1834 41.4636 26.3784 41.5347 26.5735C41.561 26.6455 41.5873 26.7176 41.6136 26.7896C41.6201 26.8075 41.6266 26.8253 41.6333 26.8436C41.7039 27.0372 41.7745 27.2307 41.8452 27.4243C41.8515 27.4415 41.8578 27.4587 41.8642 27.4764C41.8959 27.5632 41.9276 27.65 41.9593 27.7368C42.0165 27.8935 42.0737 28.0502 42.1309 28.2068C42.1627 28.2939 42.1945 28.3811 42.2263 28.4682C42.239 28.503 42.2518 28.5379 42.2645 28.5727C42.2708 28.59 42.2771 28.6072 42.2836 28.625C42.9133 30.3498 43.543 32.0746 46.6151 40.4896C46.6214 40.5069 46.6277 40.5241 46.6342 40.5419C46.6469 40.5767 46.6596 40.6116 46.6724 40.6464C46.7042 40.7336 46.736 40.8207 46.7678 40.9078C46.825 41.0645 46.8822 41.2212 46.9394 41.3778C46.9711 41.4648 47.0029 41.5517 47.0346 41.6387C47.0409 41.6559 47.0472 41.6731 47.0536 41.6909C47.1436 41.9372 47.2336 42.1836 47.3236 42.43C47.3817 42.589 47.4397 42.7481 47.4978 42.9072C47.5041 42.9244 47.5104 42.9416 47.5169 42.9594C47.6621 43.3569 47.8071 43.7546 47.9518 44.1524C47.958 44.1694 47.9641 44.1864 47.9705 44.204C48.0352 44.3819 48.0998 44.5597 48.1644 44.7376C48.175 44.7667 48.1855 44.7957 48.1964 44.8256C48.2158 44.8792 48.2353 44.9328 48.2547 44.9864C48.2634 45.0103 48.2721 45.0341 48.281 45.0588C48.2892 45.0811 48.2973 45.1034 48.3056 45.1265C48.3282 45.1878 48.3516 45.2487 48.3751 45.3096C48.4088 45.4027 48.4088 45.4027 48.413 45.475C48.3636 45.572 48.275 45.6062 48.1815 45.6533C48.1373 45.6766 48.0933 45.7 48.0492 45.7235C48.0256 45.736 48.0021 45.7485 47.9778 45.7613C47.8508 45.8299 47.7267 45.9036 47.6024 45.9769C47.3687 46.1139 47.1342 46.2492 46.8988 46.3834C46.4099 46.6622 45.9223 46.9435 45.4363 47.2275C45.0969 47.4256 44.7563 47.6215 44.4158 47.8176C44.3555 47.8523 44.2952 47.8871 44.2349 47.9218C44.1764 47.9555 44.1179 47.9892 44.0593 48.0228C43.9305 48.097 43.8022 48.1716 43.6751 48.2487C43.6435 48.2677 43.6435 48.2677 43.6114 48.2872C43.5731 48.3104 43.5349 48.3338 43.4969 48.3575C43.454 48.3835 43.4094 48.4067 43.3646 48.4293C43.2849 48.4027 43.2849 48.4027 43.2563 48.3473C43.2475 48.3227 43.2386 48.2981 43.2295 48.2727C43.2193 48.2446 43.209 48.2164 43.1984 48.1874C43.1874 48.1563 43.1764 48.1251 43.1651 48.0931C43.1533 48.0605 43.1415 48.028 43.1294 47.9945C43.1037 47.9236 43.0782 47.8526 43.0529 47.7816C43.0124 47.6681 42.9716 47.5548 42.9306 47.4415C42.8807 47.3033 42.8309 47.1651 42.7812 47.0268C42.6938 46.7837 42.6056 46.5408 42.5168 46.2981C42.5105 46.2808 42.5041 46.2634 42.4976 46.2455C42.4657 46.1585 42.4339 46.0716 42.4021 45.9846C42.3384 45.8105 42.2748 45.6364 42.2113 45.4623C42.2051 45.4452 42.1989 45.4282 42.1924 45.4106C42.1037 45.1676 42.0152 44.9244 41.9269 44.6812C41.9159 44.6509 41.9049 44.6206 41.8936 44.5894C41.8716 44.5288 41.8496 44.4683 41.8276 44.4077C41.8114 44.3631 41.8114 44.3631 41.7949 44.3176C41.7842 44.288 41.7734 44.2583 41.7623 44.2278C41.5816 43.7302 41.3987 43.2334 41.2153 42.7367C41.0436 42.2717 40.8744 41.8058 40.7071 41.3391C40.5489 40.8979 40.3878 40.458 40.2252 40.0184C40.0287 39.4866 39.8347 38.954 39.6428 38.4205C39.4592 37.9098 39.2741 37.3997 39.0864 36.8905C38.9201 36.4393 38.7559 35.9873 38.5925 35.535C38.4404 35.1143 38.2881 34.6936 38.1329 34.274C37.9789 33.8575 37.8267 33.4403 37.6749 33.0229C37.6639 32.9925 37.6528 32.962 37.6414 32.9306C37.5526 32.6865 37.5526 32.6865 37.5126 32.5758C37.4589 32.4272 37.4046 32.2788 37.3493 32.1307C37.3383 32.1008 37.3272 32.0709 37.3159 32.0402C37.295 31.9837 37.2739 31.9273 37.2526 31.871C37.0801 31.4015 37.2327 31.0118 37.4005 30.5627C37.4114 30.5332 37.4224 30.5038 37.4336 30.4734C37.457 30.4103 37.4804 30.3471 37.5039 30.284C37.567 30.1143 37.6298 29.9444 37.6926 29.7746C37.7021 29.7487 37.7021 29.7487 37.7119 29.7223C37.8371 29.3835 37.9597 29.0438 38.0815 28.7038C38.263 28.1972 38.4481 27.6921 38.6347 27.1874C38.7902 26.7665 38.9441 26.345 39.0955 25.9226C39.25 25.4917 39.405 25.0609 39.5635 24.6314C39.5819 24.5815 39.6002 24.5316 39.6184 24.4816C39.6434 24.4132 39.6687 24.3448 39.6941 24.2764C39.7013 24.2565 39.7085 24.2366 39.716 24.216C39.7747 24.0591 39.8436 23.9076 39.9929 23.8189C40.1429 23.774 40.2851 23.7654 40.426 23.8371Z" fill="#12A9FE"/>
<path d="M36.0688 35.6748C36.2621 35.7664 36.3316 35.985 36.3987 36.1722C36.4098 36.2043 36.421 36.2364 36.4325 36.2694C36.4446 36.3037 36.4568 36.3379 36.469 36.3721C36.495 36.445 36.5207 36.518 36.5463 36.591C36.5869 36.7067 36.628 36.8222 36.6691 36.9377C36.683 36.9768 36.6969 37.0158 36.7108 37.0549C36.7211 37.0839 36.7211 37.0839 36.7316 37.1135C36.7525 37.1724 36.7734 37.2312 36.7943 37.29C36.9123 37.6225 37.0333 37.9539 37.1556 38.2848C37.3288 38.7543 37.4999 39.2245 37.67 39.6952C37.8412 40.1691 38.0135 40.6427 38.1877 41.1155C38.3612 41.5867 38.533 42.0586 38.7037 42.5309C38.8806 43.0201 39.0578 43.5091 39.2363 43.9977C39.2516 44.0396 39.2516 44.0396 39.2673 44.0824C39.3867 44.4092 39.5067 44.7358 39.6272 45.0622C39.6447 45.1096 39.6447 45.1096 39.6625 45.1579C39.6742 45.1895 39.6859 45.2212 39.6979 45.2538C39.7216 45.3179 39.7453 45.3821 39.769 45.4462C39.7807 45.478 39.7924 45.5097 39.8045 45.5424C39.9765 46.0087 40.1461 46.4757 40.3138 46.9435C40.4315 47.272 40.5504 47.6001 40.6711 47.9275C40.6805 47.9529 40.6805 47.9529 40.69 47.9788C40.7569 48.1603 40.824 48.3417 40.8912 48.523C40.955 48.6953 41.0183 48.8677 41.0814 49.0402C41.0912 49.0669 41.101 49.0935 41.1111 49.121C41.1385 49.1955 41.1654 49.2702 41.1923 49.3449C41.2004 49.3669 41.2085 49.3888 41.2168 49.4114C41.2703 49.562 41.2703 49.562 41.2407 49.6508C41.1853 49.6901 41.1853 49.6901 41.1114 49.7317C41.0839 49.7474 41.0564 49.763 41.0281 49.7792C40.9981 49.796 40.968 49.8127 40.9371 49.83C40.9057 49.8478 40.8744 49.8656 40.8431 49.8834C40.7779 49.9204 40.7127 49.9573 40.6475 49.9942C40.4995 50.0778 40.3525 50.1631 40.2053 50.2482C40.1478 50.2814 40.0903 50.3146 40.0328 50.3477C39.9901 50.3724 39.9901 50.3724 39.9465 50.3975C37.6169 51.7415 37.6169 51.7415 37.5305 51.7914C37.4733 51.8243 37.4162 51.8573 37.3591 51.8903C37.2253 51.9675 37.0914 52.0447 36.9575 52.1217C36.9102 52.1489 36.8629 52.1761 36.8157 52.2033C36.7564 52.2374 36.6972 52.2714 36.6379 52.3054C36.5193 52.3737 36.4016 52.4424 36.2863 52.5162C36.1965 52.5712 36.1965 52.5712 36.1434 52.5712C36.1377 52.5552 36.1319 52.5393 36.126 52.5229C36.0506 52.3138 35.9751 52.1048 35.8995 51.8958C35.8902 51.87 35.8902 51.87 35.8806 51.8436C35.6919 51.3216 35.5013 50.8003 35.3088 50.2797C35.1092 49.7398 34.9127 49.1989 34.718 48.6572C34.5256 48.1219 34.3303 47.5877 34.1329 47.0543C33.9974 46.6877 33.8631 46.3208 33.7311 45.953C33.7213 45.9258 33.7213 45.9258 33.7113 45.8979C33.6457 45.7154 33.5804 45.5327 33.5153 45.35C33.395 45.0125 33.2736 44.6758 33.1433 44.342C33.123 44.2897 33.1028 44.2374 33.0826 44.1852C33.0464 44.0918 33.0092 43.9989 32.9714 43.9061C32.8907 43.7025 32.8362 43.5168 32.8339 43.2964C32.8337 43.2784 32.8334 43.2604 32.8332 43.2419C32.8428 42.9445 32.9802 42.6519 33.082 42.3763C33.1002 42.3265 33.1184 42.2767 33.1367 42.2269C33.156 42.1743 33.1753 42.1216 33.1947 42.0689C33.2566 41.9008 33.3181 41.7325 33.3797 41.5643C33.4009 41.5064 33.4222 41.4485 33.4434 41.3906C33.5701 41.0446 33.6956 40.6982 33.8207 40.3517C34.0101 39.8274 34.2008 39.3036 34.3936 38.7805C34.5436 38.3733 34.6918 37.9655 34.8391 37.5574C35.1911 36.5824 35.1911 36.5824 35.3354 36.1974C35.3463 36.168 35.3572 36.1385 35.3684 36.1081C35.5049 35.7478 35.5049 35.7478 35.6943 35.6517C35.8281 35.6032 35.9421 35.6198 36.0688 35.6748Z" fill="#12A9FE"/>
<path d="M49.5504 48.6162C49.5504 48.6425 49.5504 48.6688 49.5504 48.6959C49.2113 48.8919 48.8719 49.0876 48.5316 49.2816C48.2604 49.4363 47.99 49.5923 47.7206 49.7501C47.5014 49.8783 47.281 50.0043 47.0604 50.13C46.8454 50.2525 46.6311 50.3761 46.4176 50.5011C46.1728 50.6445 45.9269 50.7858 45.6803 50.9262C45.4292 51.0692 45.1793 51.214 44.9306 51.3612C44.7745 51.4531 44.6162 51.5374 44.4531 51.6162C44.4878 51.512 44.5257 51.5027 44.6205 51.4498C44.6504 51.433 44.6803 51.4161 44.7111 51.3988C44.744 51.3805 44.7769 51.3623 44.8098 51.3441C44.8437 51.325 44.8775 51.306 44.9114 51.2869C44.9811 51.2476 45.0509 51.2084 45.1208 51.1693C45.2717 51.0845 45.4216 50.9977 45.5714 50.911C45.6284 50.8781 45.6853 50.8452 45.7423 50.8123C45.7845 50.7879 45.7845 50.7879 45.8276 50.763C45.9142 50.713 46.0008 50.6631 46.0874 50.6131C46.365 50.4532 46.6423 50.2929 46.9187 50.1311C47.1794 49.9787 47.4412 49.8286 47.7035 49.679C47.9984 49.5108 48.2926 49.3412 48.5866 49.1713C48.7413 49.0819 48.8961 48.9926 49.0509 48.9033C49.0796 48.8867 49.1083 48.8701 49.1379 48.8531C49.2752 48.7738 49.4126 48.6947 49.5504 48.6162Z" fill="#19ACFD"/>
</g>
<defs>
<clipPath id="clip0_281_384">
<rect width="63.7162" height="63.7162" rx="31.8581" fill="white"/>
</clipPath>
</defs>
</svg>
