<svg width="64" height="64" viewBox="0 0 64 64" fill="none" xmlns="http://www.w3.org/2000/svg">
<path d="M31.8581 63.7162C49.4533 63.7162 63.7162 49.4533 63.7162 31.8581C63.7162 14.2629 49.4533 0 31.8581 0C14.2629 0 0 14.2629 0 31.8581C0 49.4533 14.2629 63.7162 31.8581 63.7162Z" fill="#F3BA2F"/>
<path d="M31.8581 19.3882L23.0194 28.2269L17.877 23.0837L31.8581 9.10254L45.8438 23.0879L40.701 28.2307L31.8581 19.3882Z" fill="white"/>
<path d="M14.2453 26.7146L9.10236 31.8583L14.245 37.0002L19.388 31.8572L14.2453 26.7146Z" fill="white"/>
<path d="M31.8581 44.3285L23.0194 35.4903L17.8697 40.6257L31.8581 54.6141L45.8438 40.6289L45.8464 40.6262L40.7008 35.4861L31.8581 44.3285Z" fill="white"/>
<path d="M49.4713 26.7175L44.3283 31.8605L49.4711 37.0031L54.6139 31.8601L49.4713 26.7175Z" fill="white"/>
<path d="M37.0763 31.8555H37.0744L37.0792 31.8581L37.0766 31.861L31.8581 37.0795L26.6441 31.8648L26.6368 31.8574L26.6441 31.8503L31.8581 26.637L37.0763 31.8555Z" fill="white"/>
</svg>
