<svg width="66" height="66" viewBox="0 0 66 66" fill="none" xmlns="http://www.w3.org/2000/svg">
<circle cx="32.7574" cy="32.7574" r="32.7574" fill="white"/>
<path d="M20.3069 40.5186C20.5339 40.2916 20.846 40.1592 21.1771 40.1592H51.1979C51.7465 40.1592 52.0208 40.8213 51.633 41.2091L45.7026 47.1394C45.4756 47.3664 45.1634 47.4989 44.8324 47.4989H14.8116C14.263 47.4989 13.9887 46.8368 14.3765 46.449L20.3069 40.5186Z" fill="url(#paint0_linear_281_382)"/>
<path d="M20.3069 18.376C20.5433 18.149 20.8555 18.0166 21.1771 18.0166H51.1979C51.7465 18.0166 52.0208 18.6787 51.633 19.0665L45.7026 24.9969C45.4756 25.2239 45.1634 25.3563 44.8324 25.3563H14.8116C14.263 25.3563 13.9887 24.6942 14.3765 24.3064L20.3069 18.376Z" fill="url(#paint1_linear_281_382)"/>
<path d="M45.7026 29.376C45.4756 29.149 45.1634 29.0166 44.8324 29.0166H14.8116C14.263 29.0166 13.9887 29.6787 14.3765 30.0665L20.3069 35.9969C20.5339 36.2239 20.846 36.3563 21.1771 36.3563H51.1979C51.7465 36.3563 52.0208 35.6942 51.633 35.3064L45.7026 29.376Z" fill="url(#paint2_linear_281_382)"/>
<defs>
<linearGradient id="paint0_linear_281_382" x1="-53.6574" y1="12.4477" x2="-54.4561" y2="52.6407" gradientUnits="userSpaceOnUse">
<stop stop-color="#00FFA3"/>
<stop offset="1" stop-color="#DC1FFF"/>
</linearGradient>
<linearGradient id="paint1_linear_281_382" x1="-62.7421" y1="7.70415" x2="-63.5409" y2="47.8971" gradientUnits="userSpaceOnUse">
<stop stop-color="#00FFA3"/>
<stop offset="1" stop-color="#DC1FFF"/>
</linearGradient>
<linearGradient id="paint2_linear_281_382" x1="-58.2287" y1="10.0605" x2="-59.0274" y2="50.2534" gradientUnits="userSpaceOnUse">
<stop stop-color="#00FFA3"/>
<stop offset="1" stop-color="#DC1FFF"/>
</linearGradient>
</defs>
</svg>
