<svg width="64" height="64" viewBox="0 0 64 64" fill="none" xmlns="http://www.w3.org/2000/svg">
<g clip-path="url(#clip0_281_383)">
<path d="M63.7158 31.8579C63.7158 49.4527 49.4527 63.7162 31.8581 63.7162C14.2633 63.7162 0 49.4527 0 31.8579C0 14.2633 14.2633 0 31.8581 0C49.4525 0 63.7158 14.2633 63.7158 31.8579" fill="#7536C6"/>
<path d="M42.6727 24.3036C41.889 23.847 40.8717 23.847 40.0094 24.3036L33.8948 27.8165L29.7427 30.106L23.6281 33.6167C22.8444 34.0755 21.8271 34.0755 20.9648 33.6167L16.1054 30.8685C15.3217 30.4118 14.7737 29.5729 14.7737 28.6554V23.2353C14.7737 22.3199 15.2431 21.481 16.1054 21.0223L20.8841 18.3504C21.6699 17.8917 22.6893 17.8917 23.5516 18.3504L28.3303 21.0223C29.1161 21.481 29.6641 22.3199 29.6641 23.2353V26.7482L33.8163 24.3801V20.8693C33.8208 20.4134 33.6988 19.965 33.4637 19.5743C33.2286 19.1836 32.8896 18.8658 32.4846 18.6563L23.6281 13.6185C22.8444 13.1597 21.8271 13.1597 20.9648 13.6185L11.9511 18.6563C11.5461 18.8658 11.2071 19.1836 10.972 19.5743C10.7369 19.965 10.6149 20.4134 10.6194 20.8693V31.0214C10.6194 31.9389 11.0888 32.7778 11.9511 33.2366L20.9648 38.2744C21.7485 38.731 22.7679 38.731 23.6281 38.2744L29.7427 34.838L33.8948 32.472L40.0094 29.0377C40.7931 28.579 41.8105 28.579 42.6727 29.0377L47.4536 31.7095C48.2394 32.1662 48.7852 33.0051 48.7852 33.9226V39.3427C48.7852 40.2581 48.318 41.097 47.4536 41.5557L42.6749 44.304C41.889 44.7628 40.8696 44.7628 40.0094 44.304L35.2286 41.6322C34.4428 41.1734 33.8948 40.3345 33.8948 39.4191V35.9063L29.7427 38.2744V41.7851C29.7427 42.7005 30.2121 43.5416 31.0743 43.9982L40.088 49.036C40.8717 49.4947 41.889 49.4947 42.7513 49.036L51.765 43.9982C52.5487 43.5416 53.0967 42.7026 53.0967 41.7851V31.6331C53.1012 31.1771 52.9792 30.7288 52.7441 30.338C52.509 29.9473 52.17 29.6295 51.765 29.42L42.6749 24.3036H42.6727Z" fill="#7536C6"/>
<path d="M42.6727 24.3036C41.889 23.847 40.8717 23.847 40.0094 24.3036L33.8948 27.8165L29.7427 30.106L23.6281 33.6167C22.8444 34.0755 21.8271 34.0755 20.9648 33.6167L16.1054 30.8685C15.3217 30.4118 14.7737 29.5729 14.7737 28.6554V23.2353C14.7737 22.3199 15.2431 21.481 16.1054 21.0223L20.8841 18.3504C21.6699 17.8917 22.6893 17.8917 23.5516 18.3504L28.3303 21.0223C29.1161 21.481 29.6641 22.3199 29.6641 23.2353V26.7482L33.8163 24.3801V20.8693C33.8208 20.4134 33.6988 19.965 33.4637 19.5743C33.2286 19.1836 32.8896 18.8658 32.4846 18.6563L23.6281 13.6185C22.8444 13.1597 21.8271 13.1597 20.9648 13.6185L11.9511 18.6563C11.5461 18.8658 11.2071 19.1836 10.972 19.5743C10.7369 19.965 10.6149 20.4134 10.6194 20.8693V31.0214C10.6194 31.9389 11.0888 32.7778 11.9511 33.2366L20.9648 38.2744C21.7485 38.731 22.7679 38.731 23.6281 38.2744L29.7427 34.838L33.8948 32.472L40.0094 29.0377C40.7931 28.579 41.8105 28.579 42.6727 29.0377L47.4536 31.7095C48.2394 32.1662 48.7852 33.0051 48.7852 33.9226V39.3427C48.7852 40.2581 48.318 41.097 47.4536 41.5557L42.6749 44.304C41.889 44.7628 40.8696 44.7628 40.0094 44.304L35.2286 41.6322C34.4428 41.1734 33.8948 40.3345 33.8948 39.4191V35.9063L29.7427 38.2744V41.7851C29.7427 42.7005 30.2121 43.5416 31.0743 43.9982L40.088 49.036C40.8717 49.4947 41.889 49.4947 42.7513 49.036L51.765 43.9982C52.5487 43.5416 53.0967 42.7026 53.0967 41.7851V31.6331C53.1012 31.1771 52.9792 30.7288 52.7441 30.338C52.509 29.9473 52.17 29.6295 51.765 29.42L42.6749 24.3036H42.6727Z" fill="white"/>
</g>
<defs>
<clipPath id="clip0_281_383">
<rect width="63.7162" height="63.7162" rx="31.8581" fill="white"/>
</clipPath>
</defs>
</svg>
