<svg width="64" height="64" viewBox="0 0 64 64" fill="none" xmlns="http://www.w3.org/2000/svg">
<path d="M63.7112 31.306C64.0205 48.8953 50.0044 63.4068 32.4086 63.7113C14.8127 64.0158 0.308125 50.0068 0.00483393 32.4142C-0.298457 14.8216 13.7081 0.307723 31.3004 0.00482131C48.8927 -0.29808 63.4068 13.7094 63.7112 31.306Z" fill="#4E80FF"/>
<path d="M19.5522 34.3672L31.939 51.5306V41.6535L19.5522 34.3672Z" fill="white"/>
<path d="M31.9392 51.6925L44.164 34.3672L31.9392 41.7345V51.6925Z" fill="#D2ECFF"/>
<path d="M31.8581 29.251V39.0956L39.2415 33.5149L31.8581 29.251Z" fill="#9DD4FF"/>
<path d="M31.858 12.0234V26.5961L19.5522 32.2633L31.858 12.0234Z" fill="white"/>
<path d="M44.1639 32.1004L31.8581 26.5952V12.0225L44.1639 32.1004Z" fill="#D2ECFF"/>
<path d="M24.4745 33.6403L31.858 39.0956L31.8098 29.251L24.4745 33.6403Z" fill="#9DD4FF"/>
</svg>
